<svg width="76" height="35" viewBox="0 0 76 35" fill="none" xmlns="http://www.w3.org/2000/svg">
<path d="M1.53003 33.9767L7.03357 25.3822L8.73364 28.6967L14.1223 23.8433L21.2573 22.9781L23.0447 8.45623L26.9127 13.7816L29.6809 9.63847L35.6434 14.9865L40.107 1.35229L43.2973 6.99488L45.5097 3.92964L47.3411 10.6152H51.1586L54.5166 17.8203L56.9682 22.9781L60.5336 20.3992L63.0497 20.8409L65.2751 22.9781L69.3893 27.3009L72.4881 30.167L74.935 33.9767" stroke="#ED2939" stroke-width="0.815611" stroke-linecap="square"/>
<path fill-rule="evenodd" clip-rule="evenodd" d="M1.53003 33.9767L7.03357 25.3822L8.73364 28.6967L14.1223 23.8433L21.2573 22.9781L23.0447 8.45623L26.9127 13.7816L29.6809 9.63847L35.6434 14.9865L40.107 1.35229L43.2973 6.99488L45.5097 3.92964L47.3411 10.6152H51.1586L54.5166 17.8203L56.9682 22.9781L60.5336 20.3992L63.0497 20.8409L65.2751 22.9781L69.3893 27.3009L72.4881 30.167L74.935 33.9767" fill="url(#paint0_linear_1_2852)"/>
<defs>
<linearGradient id="paint0_linear_1_2852" x1="1.53003" y1="1.35229" x2="1.53003" y2="33.9767" gradientUnits="userSpaceOnUse">
<stop stop-color="#ED2939" stop-opacity="0.384178"/>
<stop offset="1" stop-color="#0F1416" stop-opacity="0"/>
</linearGradient>
</defs>
</svg>
