<svg width="1920" height="246" viewBox="0 0 1920 246" fill="none" xmlns="http://www.w3.org/2000/svg">
<path d="M-0.191406 45.8651L64.3809 32.3663C166.183 11.0846 271.555 13.9353 372.058 40.6901L421.663 53.8955C511.236 77.7408 605.741 75.6463 694.17 47.8561C783.912 19.6531 879.883 17.9234 970.583 42.8741L1037.19 61.1961C1107.49 80.5349 1180.48 88.2128 1253.27 83.9243L1370.04 77.0438C1411.76 74.5855 1453.16 68.2098 1493.69 58.0011L1539.69 46.4145C1648.46 19.0166 1762.39 19.5004 1870.92 47.8209L1920.2 60.6789V206.06L-0.191406 212.043V45.8651Z" fill="url(#paint0_linear_97_3109)" fill-opacity="0.5"/>
<path d="M-0.191406 98.0188L130.498 64.9153C210.15 44.7397 293.935 48.0149 371.769 74.3467L411.586 87.8171C481.936 111.617 558.466 109.56 627.436 82.0146C697.413 54.0672 775.136 52.3703 846.266 77.2368L870.843 85.8286C942.73 110.96 1021.1 110.441 1092.65 84.3608C1155.22 61.5506 1223.24 58.22 1287.75 74.8072L1325.07 84.4052C1403.35 104.533 1485.96 99.6647 1561.33 70.4819C1628.54 44.459 1701.67 37.7087 1772.51 50.9905L1920.2 78.6816V246.715H-0.191406V98.0188Z" fill="#4D3D75"/>
<path d="M-0.191406 49.3359L130.536 76.5314C212.206 93.5214 296.605 92.432 377.81 73.3398C445.31 57.4697 515.135 54.0122 583.873 63.1363L635.555 69.9965C695.104 77.9008 755.448 77.7221 814.949 69.4651L849.711 64.6412C922.676 54.5157 996.85 57.2328 1068.88 72.6695C1157.08 91.5724 1248.31 91.3626 1336.42 72.0541L1338.98 71.4941C1405.96 56.8163 1474.86 52.9362 1543.07 60.0005L1610.98 67.034C1656.53 71.7515 1702.44 71.7646 1747.99 67.0729L1920.2 49.3359V246.709H-0.191406V49.3359Z" fill="url(#paint1_linear_97_3109)" fill-opacity="0.8"/>
<defs>
<linearGradient id="paint0_linear_97_3109" x1="-100.948" y1="104.36" x2="2331.9" y2="104.36" gradientUnits="userSpaceOnUse">
<stop offset="1" stop-color="#1E192B"/>
</linearGradient>
<linearGradient id="paint1_linear_97_3109" x1="-0.191406" y1="148.023" x2="1920.2" y2="148.023" gradientUnits="userSpaceOnUse">
<stop stop-color="#65558F" stop-opacity="0.5"/>
<stop offset="0.5" stop-color="#8477A5" stop-opacity="0.5"/>
<stop offset="1" stop-color="#1E192B"/>
</linearGradient>
</defs>
</svg>
