<svg width="76" height="35" viewBox="0 0 76 35" fill="none" xmlns="http://www.w3.org/2000/svg">
<path fill-rule="evenodd" clip-rule="evenodd" d="M1.26758 33.9767L4.93783 20.5332L8.94499 15.7856H12.4333L16.5079 12.2876L18.2425 5.95455L21.0507 12.2876L22.3715 19.9656L26.5005 15.7856L28.5651 8.93494L30.4002 15.7856L34.0597 8.93494L37.1349 5.95455L38.4289 12.2876L40.7966 14.721H44.5937L47.16 8.93494L50.2201 5.95455L54.4051 1.35229L57.6977 4.28274L60.3607 5.95455L64.8778 8.93494L66.7268 5.95455L71.1313 8.93494V4.28274L74.6726 5.95455V32.9687L1.26758 33.9767Z" fill="url(#paint0_linear_1_2872)"/>
<path d="M1.26758 33.9767L4.93783 20.5332L8.94499 15.7856H12.4333L16.5079 12.2876L18.2425 5.95455L21.0507 12.2876L22.3715 19.9656L26.5005 15.7856L28.5651 8.93494L30.4002 15.7856L34.0597 8.93494L37.1349 5.95455L38.4289 12.2876L40.7966 14.721H44.5937L47.16 8.93494L50.2201 5.95455L54.4051 1.35229L57.6977 4.28274L60.3607 5.95455L64.8778 8.93494L66.7268 5.95455L71.1313 8.93494V4.28274L74.6726 5.95455" stroke="#00B42D" stroke-width="0.815611" stroke-linecap="square"/>
<defs>
<linearGradient id="paint0_linear_1_2872" x1="1.26758" y1="1.35229" x2="1.26758" y2="33.9767" gradientUnits="userSpaceOnUse">
<stop stop-color="#B5F8C6" stop-opacity="0.378797"/>
<stop offset="1" stop-color="#0F1416" stop-opacity="0"/>
</linearGradient>
</defs>
</svg>
