<svg width="123" height="202" viewBox="0 0 123 202" fill="none" xmlns="http://www.w3.org/2000/svg">
<path fill-rule="evenodd" clip-rule="evenodd" d="M50.1047 50.592H7.49219C9.42204 45.4353 12.376 40.7517 16.3541 36.5411C24.2181 28.3633 35.0485 23.3079 48.8452 21.375V5.98589C48.8452 4.35038 49.3281 3.0122 50.2938 1.97135C51.2596 0.930554 52.5013 0.410156 54.0189 0.410156H68.7122C70.0922 0.410156 71.2649 0.930554 72.2303 1.97135C73.1963 3.0122 73.679 4.35038 73.679 5.98589V21.8211C83.1986 23.4566 91.1321 26.579 97.4783 31.1883C103.963 35.649 108.861 40.7786 112.172 46.5774C112.994 47.924 113.722 49.2622 114.356 50.592H69.8694C67.0555 49.6999 63.9105 49.2538 60.4344 49.2538C56.5313 49.2538 53.088 49.6999 50.1047 50.592Z" fill="#1EABDA"/>
<path fill-rule="evenodd" clip-rule="evenodd" d="M106.962 100.779H21.719C16.8519 97.4482 12.9936 93.508 10.1444 88.9589C6.55725 82.8627 4.76367 75.354 4.76367 66.4328C4.76367 60.7345 5.6728 55.4562 7.49105 50.5977H50.1036C47.9196 51.2507 45.9822 52.1428 44.2912 53.274C40.2901 55.9504 38.2896 60.0392 38.2896 65.5407C38.2896 69.1092 39.3243 72.1573 41.3938 74.6849C43.4634 77.0639 46.8435 79.2199 51.5344 81.1528C56.2253 82.937 62.5718 84.9443 70.5735 87.1746C82.7152 89.851 92.5795 93.0478 100.168 96.7649C102.655 97.9833 104.919 99.3215 106.962 100.779ZM114.355 50.5977H69.868C72.1919 51.3343 74.2894 52.3751 76.1617 53.7201C80.3005 56.5451 82.7152 59.8906 83.4046 63.7565C83.631 65.0228 84.7248 66.4295 85.8282 67.0243C86.9322 67.619 88.5787 67.771 89.8201 67.771H113.205C114.447 67.771 115.482 67.3249 116.31 66.4328C117.137 65.392 117.551 64.2769 117.551 63.0873C117.446 59.0104 116.381 54.8472 114.355 50.5977Z" fill="#3CC583"/>
<path fill-rule="evenodd" clip-rule="evenodd" d="M106.96 100.773C111.149 103.764 114.403 107.258 116.722 111.256C120.309 117.055 122.103 124.415 122.103 133.336C122.103 139.742 120.999 145.615 118.791 150.955H74.1027C77.1441 150.178 79.6926 149.063 81.7477 147.61C86.3005 144.487 88.5772 140.25 88.5772 134.897C88.5772 131.031 87.3352 127.909 84.8518 125.53C82.5064 123.151 78.7123 120.995 73.4695 119.062C68.3646 117.129 61.4664 115.047 52.7745 112.817C42.427 110.438 33.6661 107.39 26.4919 103.673C24.8051 102.764 23.2136 101.797 21.7175 100.773H106.96ZM3.93245 150.955H50.4634C49.5326 150.696 48.6474 150.398 47.8077 150.063C44.0826 148.428 41.1163 146.42 38.9089 144.041C36.8394 141.662 35.3218 139.209 34.356 136.681C33.8272 135.297 33.1027 134.519 32.137 133.776C31.1712 132.883 29.3202 132.444 27.5266 132.444H5.383C4.1413 132.444 3.03754 132.964 2.07178 134.005C1.24396 134.897 0.830078 135.938 0.830078 137.127C1.02638 141.887 2.06049 146.496 3.93245 150.955Z" fill="#92BD39"/>
<path fill-rule="evenodd" clip-rule="evenodd" d="M50.2942 199.582C51.26 200.622 52.5017 201.143 54.0193 201.143H68.7125C70.0925 201.143 71.2652 200.622 72.2312 199.582C73.1966 198.541 73.6793 197.203 73.6793 195.567V180.178C83.4755 178.84 91.9604 176.163 99.1346 172.149C106.447 168.134 112.103 162.856 116.104 156.314C117.133 154.593 118.029 152.809 118.794 150.961H74.1059C70.6128 151.853 66.4699 152.299 61.6765 152.299C57.4018 152.299 53.6651 151.853 50.4665 150.961H3.93555C4.69502 152.77 5.59244 154.554 6.62774 156.314C10.2149 162.41 15.5266 167.614 22.5629 171.926C29.5992 176.089 38.3601 178.84 48.8456 180.178V195.567C48.8456 197.203 49.3285 198.541 50.2942 199.582Z" fill="#E0CB15"/>
</svg>
