<svg width="75" height="35" viewBox="0 0 75 35" fill="none" xmlns="http://www.w3.org/2000/svg">
<path fill-rule="evenodd" clip-rule="evenodd" d="M0.791992 33.9768L4.46224 20.5332L8.46941 15.7857H11.9578L16.0323 12.2877L17.7669 5.95458L20.5751 12.2877L21.8959 19.9657L26.025 15.7857L28.0895 8.93497L29.9246 15.7857L33.5841 8.93497L36.6594 5.95458L37.9533 12.2877L40.321 14.7211H44.1181L46.6844 8.93497L49.7445 5.95458L53.9295 1.35233L57.2221 4.28277L59.8852 5.95458L64.4022 8.93497L66.2512 5.95458L70.6558 8.93497V4.28277L74.197 5.95458V32.9688L0.791992 33.9768Z" fill="url(#paint0_linear_94_869)"/>
<path d="M0.791992 33.9768L4.46224 20.5332L8.46941 15.7857H11.9578L16.0323 12.2877L17.7669 5.95458L20.5751 12.2877L21.8959 19.9657L26.025 15.7857L28.0895 8.93497L29.9246 15.7857L33.5841 8.93497L36.6594 5.95458L37.9533 12.2877L40.321 14.7211H44.1181L46.6844 8.93497L49.7445 5.95458L53.9295 1.35233L57.2221 4.28277L59.8852 5.95458L64.4022 8.93497L66.2512 5.95458L70.6558 8.93497V4.28277L74.197 5.95458" stroke="#00B42D" stroke-width="0.815611" stroke-linecap="square"/>
<defs>
<linearGradient id="paint0_linear_94_869" x1="0.791992" y1="1.35233" x2="0.791992" y2="33.9768" gradientUnits="userSpaceOnUse">
<stop stop-color="#B5F8C6" stop-opacity="0.378797"/>
<stop offset="1" stop-color="white"/>
</linearGradient>
</defs>
</svg>
