<svg width="1920" height="247" viewBox="0 0 1920 247" fill="none" xmlns="http://www.w3.org/2000/svg">
<path d="M-0.193359 46.533L64.3789 33.0343C166.181 11.7526 271.553 14.6033 372.056 41.3581L421.661 54.5635C511.234 78.4087 605.739 76.3143 694.168 48.5241C783.91 20.3211 879.881 18.5913 970.582 43.5421L1037.19 61.8641C1107.49 81.2028 1180.48 88.8808 1253.27 84.5922L1370.04 77.7118C1411.76 75.2534 1453.16 68.8778 1493.69 58.6691L1539.69 47.0824C1648.46 19.6846 1762.38 20.1683 1870.92 48.4889L1920.19 61.3469V206.728L-0.193359 212.711V46.533Z" fill="url(#paint0_linear_100_2183)" fill-opacity="0.5"/>
<path d="M-0.193359 98.6907L130.496 65.5872C210.148 45.4116 293.933 48.6868 371.767 75.0185L411.584 88.489C481.934 112.289 558.464 110.232 627.434 82.6865C697.411 54.7391 775.134 53.0422 846.264 77.9087L870.841 86.5005C942.728 111.632 1021.1 111.113 1092.64 85.0327C1155.22 62.2225 1223.24 58.8919 1287.74 75.4791L1325.07 85.077C1403.34 105.205 1485.96 100.337 1561.33 71.1538C1628.53 45.1309 1701.67 38.3806 1772.51 51.6624L1920.19 79.3534V247.387H-0.193359V98.6907Z" fill="#CFBDFE"/>
<path d="M-0.193359 50.0195L130.534 77.215C212.205 94.205 296.604 93.1156 377.808 74.0234C445.308 58.1533 515.133 54.6958 583.871 63.8199L635.553 70.6801C695.102 78.5844 755.446 78.4057 814.947 70.1487L849.709 65.3248C922.674 55.1993 996.848 57.9164 1068.88 73.3531C1157.08 92.256 1248.31 92.0462 1336.42 72.7377L1338.98 72.1777C1405.96 57.4999 1474.86 53.6198 1543.07 60.6841L1610.97 67.7176C1656.52 72.4351 1702.44 72.4482 1747.99 67.7565L1920.19 50.0195V247.393H-0.193359V50.0195Z" fill="url(#paint1_linear_100_2183)" fill-opacity="0.8"/>
<defs>
<linearGradient id="paint0_linear_100_2183" x1="-100.95" y1="105.028" x2="2331.9" y2="105.028" gradientUnits="userSpaceOnUse">
<stop offset="1" stop-color="#CFBDFE"/>
</linearGradient>
<linearGradient id="paint1_linear_100_2183" x1="-0.193359" y1="148.706" x2="1920.19" y2="148.706" gradientUnits="userSpaceOnUse">
<stop stop-color="#65558F"/>
<stop offset="0.5" stop-color="#8477A5"/>
<stop offset="1" stop-color="#CFBDFE"/>
</linearGradient>
</defs>
</svg>
