<svg width="160" height="29" viewBox="0 0 160 29" fill="none" xmlns="http://www.w3.org/2000/svg">
<g clip-path="url(#clip0_1_2276)">
<path d="M14.7499 29C22.7583 29 29.2499 22.5084 29.2499 14.5V4.35C29.2499 3.19631 28.7916 2.08987 27.9758 1.27409C27.16 0.458302 26.0536 0 24.8999 0L15.4749 0V6.36115C15.4749 7.8126 15.5634 9.31625 16.3246 10.5517C16.8696 11.437 17.5986 12.1948 18.4623 12.7736C19.3259 13.3524 20.3039 13.7387 21.33 13.9062L21.6077 13.9512C21.7222 13.9903 21.8215 14.0642 21.8919 14.1627C21.9623 14.2611 22.0001 14.379 22.0001 14.5C22.0001 14.621 21.9623 14.7389 21.8919 14.8373C21.8215 14.9358 21.7222 15.0097 21.6077 15.0488L21.33 15.0938C19.8308 15.3387 18.4464 16.0483 17.3723 17.1224C16.2982 18.1965 15.5886 19.5809 15.3437 21.0801L15.2987 21.3578C15.2596 21.4723 15.1857 21.5716 15.0872 21.642C14.9888 21.7124 14.8709 21.7502 14.7499 21.7502C14.6289 21.7502 14.511 21.7124 14.4126 21.642C14.3142 21.5716 14.2402 21.4723 14.2011 21.3578L14.1561 21.0801C13.9886 20.054 13.6023 19.076 13.0235 18.2124C12.4447 17.3488 11.6869 16.6197 10.8016 16.0747C9.56615 15.3135 8.0625 15.225 6.61105 15.225H0.2673C0.646475 22.8962 6.98515 29 14.7499 29Z" fill="#7A7097"/>
<path d="M0.25 13.775H6.61115C8.0626 13.775 9.56625 13.6866 10.8017 12.9253C11.7674 12.3303 12.5803 11.5174 13.1753 10.5517C13.9366 9.31625 14.025 7.8126 14.025 6.36115V0H4.6C3.44631 0 2.33987 0.458302 1.52409 1.27409C0.708302 2.08987 0.25 3.19631 0.25 4.35L0.25 13.775ZM33.9299 1.45C33.9299 1.83456 33.7771 2.20338 33.5052 2.47531C33.2333 2.74723 32.8644 2.9 32.4799 2.9C32.0953 2.9 31.7265 2.74723 31.4546 2.47531C31.1826 2.20338 31.0299 1.83456 31.0299 1.45C31.0299 1.06544 31.1826 0.696623 31.4546 0.424695C31.7265 0.152767 32.0953 0 32.4799 0C32.8644 0 33.2333 0.152767 33.5052 0.424695C33.7771 0.696623 33.9299 1.06544 33.9299 1.45ZM153.74 8.7754C157.794 8.7754 159.75 11.6065 159.75 14.8857V21.0446H155.508V15.6165C155.508 14.1303 154.966 12.9036 153.411 12.9036C151.855 12.9036 151.337 14.1303 151.337 15.6165V21.0438H147.095V15.6165C147.095 14.1303 146.577 12.9036 145.021 12.9036C143.466 12.9036 142.923 14.1303 142.923 15.6165V21.0438H138.682V14.885C138.682 11.6058 140.638 8.77468 144.691 8.77468C146.907 8.77468 148.509 9.64758 149.24 11.0867C150.017 9.64758 151.714 8.77395 153.74 8.77395V8.7754ZM131.06 17.2695C132.426 17.2695 133.016 16.0189 133.016 14.5319V9.24665H137.257V15.051C137.257 18.5194 135.23 21.3984 131.06 21.3984C126.888 21.3984 124.862 18.5201 124.862 15.051V9.24665H129.104V14.5319C129.104 16.0182 129.692 17.2695 131.06 17.2695ZM118.624 21.4216C115.961 21.4216 114.241 20.5016 113.227 18.7086L116.291 16.986C116.715 17.7408 117.351 18.1185 118.412 18.1185C119.284 18.1185 119.684 17.8118 119.684 17.4341C119.684 15.995 113.463 17.458 113.463 12.8811C113.463 10.6626 115.348 8.86965 118.553 8.86965C121.358 8.86965 122.89 10.2377 123.573 11.5594L120.509 13.3052C120.251 12.5976 119.449 12.1728 118.648 12.1728C118.035 12.1728 117.705 12.4323 117.705 12.7861C117.705 14.2492 123.926 12.9043 123.926 17.3398C123.926 19.8172 121.499 21.4216 118.624 21.4216ZM103.804 26.4712H99.562V15.1221C99.562 11.5115 102.272 8.89285 106.043 8.89285C109.719 8.89285 112.524 11.7008 112.524 15.1221C112.524 18.8971 110.025 21.3984 106.278 21.3984C105.406 21.3984 104.535 21.1388 103.804 20.7372V26.4712ZM106.043 17.4109C107.386 17.4109 108.282 16.3727 108.282 15.1453C108.282 13.8954 107.386 12.8804 106.043 12.8804C104.699 12.8804 103.804 13.8954 103.804 15.146C103.804 16.3727 104.699 17.4109 106.043 17.4109ZM95.3127 7.99675C93.9222 7.99675 92.768 6.84037 92.768 5.44838C92.768 4.05638 93.9222 2.9 95.3127 2.9C96.7033 2.9 97.8582 4.05638 97.8582 5.44838C97.8582 6.84037 96.7033 7.99675 95.3127 7.99675ZM93.1921 9.24665H97.4341V21.0446H93.1921V9.24665ZM85.0533 21.3984C81.3768 21.3984 78.5725 18.5673 78.5725 15.1221C78.5725 11.7008 81.3768 8.86965 85.0533 8.86965C88.7297 8.86965 91.534 11.7008 91.534 15.1221C91.534 18.5673 88.7297 21.3984 85.0533 21.3984ZM85.0533 17.4109C86.3967 17.4109 87.2921 16.3727 87.2921 15.1453C87.2921 13.8954 86.3967 12.8572 85.0533 12.8572C83.7098 12.8572 82.8145 13.8954 82.8145 15.1453C82.8145 16.3727 83.7098 17.4109 85.0533 17.4109ZM70.5627 26.825C67.6409 26.825 65.5196 25.5273 64.4357 23.2145L67.9469 21.3273C68.3239 22.1299 69.0308 22.9557 70.4916 22.9557C72.0243 22.9557 73.0371 21.9878 73.1553 20.2891C72.5898 20.785 71.6937 21.162 70.351 21.162C67.0747 21.162 64.435 18.6376 64.435 15.0981C64.435 11.6776 67.24 8.89285 70.9165 8.89285C74.6872 8.89285 77.3973 11.5123 77.3973 15.1221V19.794C77.3973 24.041 74.4509 26.825 70.5627 26.825ZM70.8454 17.1753C72.1178 17.1753 73.0842 16.3016 73.0842 15.0039C73.0842 13.7301 72.1185 12.8804 70.8454 12.8804C69.5963 12.8804 68.6066 13.7301 68.6066 15.0046C68.6066 16.3023 69.5963 17.1745 70.8454 17.1745V17.1753ZM57.2401 21.3984C53.5636 21.3984 50.7586 18.5673 50.7586 15.1221C50.7586 11.7008 53.5636 8.86965 57.2401 8.86965C60.9158 8.86965 63.7209 11.7008 63.7209 15.1221C63.7209 18.5673 60.9166 21.3984 57.2401 21.3984ZM57.2401 17.4109C58.5835 17.4109 59.4789 16.3727 59.4789 15.1453C59.4789 13.8954 58.5835 12.8572 57.2401 12.8572C55.8967 12.8572 55.0013 13.8954 55.0013 15.1453C55.0013 16.3727 55.8967 17.4109 57.2401 17.4109ZM43.0344 5.1185V17.0331H50.0575V21.0446H42.445C39.7589 21.0446 38.675 19.6287 38.675 17.387V5.1185H43.0344Z" fill="#7A7097"/>
</g>
<defs>
<clipPath id="clip0_1_2276">
<rect width="159.5" height="29" fill="white" transform="translate(0.25)"/>
</clipPath>
</defs>
</svg>
