<svg width="76" height="35" viewBox="0 0 76 35" fill="none" xmlns="http://www.w3.org/2000/svg">
<path d="M1.53027 33.9768L7.03382 25.3822L8.73389 28.6967L14.1225 23.8434L21.2576 22.9782L23.045 8.45626L26.9129 13.7816L29.6811 9.6385L35.6437 14.9865L40.1072 1.35233L43.2975 6.99491L45.51 3.92967L47.3413 10.6153H51.1589L54.5168 17.8203L56.9684 22.9782L60.5339 20.3992L63.05 20.8409L65.2753 22.9782L69.3895 27.3009L72.4883 30.1671L74.9353 33.9768" stroke="#ED2939" stroke-width="0.815611" stroke-linecap="square"/>
<path fill-rule="evenodd" clip-rule="evenodd" d="M1.53027 33.9768L7.03382 25.3822L8.73389 28.6967L14.1225 23.8434L21.2576 22.9782L23.045 8.45626L26.9129 13.7816L29.6811 9.6385L35.6437 14.9865L40.1072 1.35233L43.2975 6.99491L45.51 3.92967L47.3413 10.6153H51.1589L54.5168 17.8203L56.9684 22.9782L60.5339 20.3992L63.05 20.8409L65.2753 22.9782L69.3895 27.3009L72.4883 30.1671L74.9353 33.9768" fill="url(#paint0_linear_94_889)"/>
<defs>
<linearGradient id="paint0_linear_94_889" x1="1.53027" y1="1.35233" x2="1.53027" y2="33.9768" gradientUnits="userSpaceOnUse">
<stop stop-color="#ED2939" stop-opacity="0.384178"/>
<stop offset="1" stop-color="white"/>
</linearGradient>
</defs>
</svg>
