<svg width="42" height="51" viewBox="0 0 42 51" fill="none" xmlns="http://www.w3.org/2000/svg">
<path d="M34.7691 48.6277C32.0728 51.2663 29.1289 50.8497 26.295 49.5998C23.296 48.3222 20.5446 48.2667 17.3806 49.5998C13.4186 51.3218 11.3276 50.8219 8.9614 48.6277C-4.46524 34.6573 -2.48426 13.3822 12.7583 12.6045C16.4726 12.7989 19.0589 14.6598 21.2325 14.8264C24.4791 14.1599 27.5881 12.2434 31.0548 12.4934C35.2094 12.8267 38.3459 14.4931 40.4094 17.4928C31.8252 22.6866 33.8612 34.1018 41.7301 37.2958C40.1618 41.462 38.1258 45.6003 34.7416 48.6555L34.7691 48.6277ZM20.9573 12.4379C20.5446 6.24419 25.5246 1.13373 31.2474 0.633789C32.0453 7.79955 24.8092 13.1322 20.9573 12.4379Z" fill="white"/>
</svg>
