<svg width="29" height="30" viewBox="0 0 29 30" fill="none" xmlns="http://www.w3.org/2000/svg">
<path d="M1.99742 6.205C1.33755 6.205 0.802612 6.73994 0.802612 7.39981V26.5167C0.802612 27.8364 1.87248 28.9063 3.19222 28.9063H13.9455C15.2652 28.9063 16.3351 27.8364 16.3351 26.5167V7.39981C16.3351 6.73994 15.8001 6.205 15.1403 6.205M0.802612 9.78942H16.3351M0.802612 14.5686H16.3351M3.78963 22.9323H5.56989M7.97144 22.9323H9.76365M3.78963 25.3219H5.56989M7.97144 25.3219H9.76365M3.78963 20.5427H5.56989M7.97144 20.5427H9.76365M3.78963 18.1531H5.58183M7.97144 18.1531H9.76365M12.1533 18.1531H13.3481M12.7507 25.3219V20.5427M4.38703 9.78942V2.39357C4.38812 2.18446 4.49637 1.99051 4.67378 1.87981C4.85122 1.77736 5.06984 1.77736 5.24729 1.87981L6.77664 2.62059L8.2343 1.64085C8.43829 1.5105 8.69941 1.5105 8.90339 1.64085L10.3611 2.62059L11.8904 1.85591C12.0678 1.75346 12.2865 1.75346 12.4639 1.85591C12.6413 1.96662 12.7496 2.16056 12.7507 2.36968V9.78942M22.3091 1.42578V14.5686M25.8935 5.6076V3.81539M21.1143 21.7375L23.5039 24.1271M23.5039 24.1271L25.8935 21.7375M23.5039 24.1271V18.1531M19.9195 1.42578H27.0883C27.0883 1.42578 28.2831 1.42578 28.2831 2.62059V13.3738C28.2831 13.3738 28.2831 14.5686 27.0883 14.5686H19.9195C19.9195 14.5686 18.7247 14.5686 18.7247 13.3738V2.62059C18.7247 2.62059 18.7247 1.42578 19.9195 1.42578Z" stroke="#1EABDA" stroke-width="1.19481" stroke-linecap="round" stroke-linejoin="round"/>
</svg>
