<svg width="39" height="38" viewBox="0 0 39 38" fill="none" xmlns="http://www.w3.org/2000/svg">
<path d="M20.0219 3.56247C11.3398 3.4452 4.25188 10.5331 4.36914 19.2152C4.48492 27.5418 11.2648 34.3217 19.5914 34.4375C28.275 34.5562 35.3614 27.4683 35.2427 18.7862C35.1284 10.4581 28.3485 3.67825 20.0219 3.56247ZM18.7757 17.8474L22.6017 13.4684C22.809 13.2313 23.102 13.0861 23.4163 13.065C23.7306 13.0438 24.0404 13.1484 24.2776 13.3556C24.5148 13.5629 24.6599 13.8559 24.6811 14.1702C24.7022 14.4845 24.5977 14.7943 24.3904 15.0315L20.5644 19.4104C20.4618 19.5278 20.337 19.6239 20.1973 19.6932C20.0575 19.7624 19.9055 19.8034 19.7498 19.8139C19.5942 19.8244 19.4381 19.8041 19.2903 19.7542C19.1425 19.7043 19.006 19.6258 18.8886 19.5232C18.7711 19.4206 18.675 19.2958 18.6058 19.1561C18.5366 19.0163 18.4955 18.8643 18.4851 18.7086C18.4746 18.553 18.4949 18.3969 18.5447 18.2491C18.5946 18.1013 18.6731 17.9648 18.7757 17.8474ZM15.8916 24.5901C15.6689 24.8127 15.367 24.9377 15.0522 24.9377C14.7374 24.9377 14.4355 24.8127 14.2128 24.5901L10.654 21.0276C10.5438 20.9173 10.4563 20.7863 10.3967 20.6422C10.3371 20.4981 10.3064 20.3437 10.3065 20.1877C10.3066 20.0317 10.3374 19.8773 10.3971 19.7332C10.4569 19.5892 10.5444 19.4583 10.6547 19.3481C10.7651 19.2378 10.896 19.1504 11.0401 19.0908C11.1843 19.0312 11.3387 19.0005 11.4947 19.0006C11.6506 19.0006 11.8051 19.0314 11.9491 19.0912C12.0932 19.1509 12.2241 19.2385 12.3343 19.3488L15.8968 22.9113C16.1186 23.1347 16.2427 23.437 16.2417 23.7518C16.2408 24.0666 16.1148 24.3681 15.8916 24.5901ZM29.0135 15.0315L20.7099 24.5315C20.6029 24.6541 20.4719 24.7534 20.3249 24.8232C20.178 24.893 20.0182 24.9319 19.8556 24.9375H19.8155C19.6595 24.9375 19.505 24.9068 19.3608 24.847C19.2167 24.7873 19.0857 24.6998 18.9754 24.5894L15.4173 21.0269C15.1947 20.8041 15.0697 20.5019 15.0699 20.1869C15.07 19.872 15.1953 19.5699 15.4181 19.3473C15.6409 19.1247 15.943 18.9997 16.258 18.9998C16.573 19 16.875 19.1252 17.0977 19.3481L19.3094 21.562C19.3669 21.6195 19.4356 21.6646 19.5112 21.6945C19.5868 21.7243 19.6678 21.7383 19.7491 21.7356C19.8304 21.7329 19.9102 21.7135 19.9837 21.6787C20.0572 21.6438 20.1227 21.5943 20.1763 21.5331L27.227 13.4684C27.4343 13.2313 27.7273 13.0861 28.0416 13.065C28.3559 13.0438 28.6657 13.1484 28.9029 13.3556C29.1401 13.5629 29.2852 13.8559 29.3064 14.1702C29.3275 14.4845 29.223 14.7943 29.0157 15.0315H29.0135Z" fill="#65558F"/>
</svg>
