<svg width="31" height="31" viewBox="0 0 31 31" fill="none" xmlns="http://www.w3.org/2000/svg">
<path d="M8.1922 15.2144V10.5977C8.20591 9.6902 8.39857 8.79434 8.75912 7.96142C9.11967 7.12851 9.64104 6.37493 10.2934 5.74385C10.9457 5.11277 11.7161 4.6166 12.5605 4.28377C13.4049 3.95094 14.3067 3.78799 15.2142 3.80426C16.1217 3.78799 17.0235 3.95094 17.8679 4.28377C18.7123 4.6166 19.4827 5.11277 20.135 5.74385C20.7873 6.37493 21.3087 7.12851 21.6692 7.96142C22.0298 8.79434 22.2224 9.6902 22.2362 10.5977V15.2144M18.7252 24.4303C19.6563 24.4303 20.5494 24.0604 21.2078 23.402C21.8663 22.7436 22.2362 21.8506 22.2362 20.9195V16.9698M18.7252 24.4303C18.7252 25.0123 18.494 25.5704 18.0825 25.9819C17.6709 26.3934 17.1128 26.6246 16.5308 26.6246H13.8976C13.3156 26.6246 12.7574 26.3934 12.3459 25.9819C11.9344 25.5704 11.7032 25.0123 11.7032 24.4303C11.7032 23.8484 11.9344 23.2902 12.3459 22.8787C12.7574 22.4672 13.3156 22.2361 13.8976 22.2361H16.5308C17.1128 22.2361 17.6709 22.4672 18.0825 22.8787C18.494 23.2902 18.7252 23.8484 18.7252 24.4303ZM5.55896 12.5813H7.31446C7.54725 12.5813 7.77051 12.6738 7.93512 12.8384C8.09973 13.003 8.1922 13.2262 8.1922 13.459V18.7252C8.1922 18.958 8.09973 19.1813 7.93512 19.3459C7.77051 19.5105 7.54725 19.6029 7.31446 19.6029H5.55896C5.09338 19.6029 4.64686 19.418 4.31764 19.0888C3.98842 18.7596 3.80347 18.3131 3.80347 17.8475V14.3367C3.80347 13.8712 3.98842 13.4247 4.31764 13.0955C4.64686 12.7663 5.09338 12.5813 5.55896 12.5813ZM24.8694 19.6029H23.1139C22.8811 19.6029 22.6579 19.5105 22.4932 19.3459C22.3286 19.1813 22.2362 18.958 22.2362 18.7252V13.459C22.2362 13.2262 22.3286 13.003 22.4932 12.8384C22.6579 12.6738 22.8811 12.5813 23.1139 12.5813H24.8694C25.335 12.5813 25.7815 12.7663 26.1107 13.0955C26.4399 13.4247 26.6249 13.8712 26.6249 14.3367V17.8475C26.6249 18.3131 26.4399 18.7596 26.1107 19.0888C25.7815 19.418 25.335 19.6029 24.8694 19.6029Z" stroke="#BAC4D2" stroke-width="1.94405" stroke-linecap="round" stroke-linejoin="round"/>
</svg>
