<svg width="31" height="31" viewBox="0 0 31 31" fill="none" xmlns="http://www.w3.org/2000/svg">
<path fill-rule="evenodd" clip-rule="evenodd" d="M18.7573 3.13683C17.5624 2.65679 16.2727 2.45959 14.989 2.56066C13.7052 2.66173 12.4623 3.05832 11.3572 3.71943C10.2522 4.38055 9.31498 5.28827 8.61892 6.37164C7.92287 7.45502 7.4868 8.6847 7.34479 9.96456L7.02528 12.8377L7.01767 12.9061C6.87464 14.1529 6.46886 15.3551 5.8271 16.4335L5.7916 16.4931L5.05874 17.7141L5.02831 17.7648C4.72148 18.2757 4.44507 18.7385 4.25995 19.1303C4.0723 19.5285 3.8707 20.0686 3.96833 20.6823C4.06357 21.2876 4.3748 21.838 4.84446 22.2317C5.3212 22.6298 5.88669 22.735 6.32539 22.7794C6.75648 22.8225 7.29661 22.8225 7.89127 22.8225H23.3979C23.9925 22.8225 24.5314 22.8225 24.9638 22.7794C25.4012 22.735 25.968 22.6298 26.4434 22.2317C26.9136 21.8382 27.2253 21.2878 27.3208 20.6823C27.4185 20.0699 27.2169 19.5285 27.0292 19.1303C26.8441 18.7373 26.5677 18.2757 26.2608 17.7648L26.2304 17.7141L25.4976 16.4931L25.4621 16.4335C24.9828 15.6283 24.634 14.7523 24.4287 13.838C23.5701 14 22.6874 13.9827 21.8358 13.7873C22.0699 15.1799 22.5604 16.517 23.2825 17.7305L23.3231 17.7977L24.0559 19.0187C24.4021 19.5969 24.6113 19.9481 24.7355 20.2106L24.7533 20.2512L24.7089 20.2562C24.4211 20.2854 24.0116 20.2867 23.3383 20.2867H7.95086C7.2776 20.2867 6.86806 20.2854 6.57897 20.2562L6.53586 20.2512L6.55361 20.2106C6.67787 19.9481 6.88708 19.5969 7.23322 19.0187L7.96607 17.7977L8.00665 17.7305C8.83167 16.344 9.35327 14.7982 9.53702 13.1952L9.5459 13.1191L9.86541 10.2448C9.95955 9.39579 10.2396 8.57798 10.6856 7.84948C11.1316 7.12099 11.7326 6.49971 12.4459 6.02981C13.1593 5.55992 13.9673 5.25295 14.8127 5.13074C15.6581 5.00853 16.5201 5.07407 17.3372 5.32271C17.6541 4.50358 18.1377 3.75922 18.7573 3.13683ZM21.9613 5.42415C21.5027 5.69523 21.1411 6.10385 20.9279 6.59203C20.7146 7.08022 20.6606 7.62317 20.7733 8.14383C20.9254 8.42953 21.0544 8.72834 21.16 9.04025C21.4609 9.48008 21.8927 9.81395 22.3941 9.99444C22.8955 10.1749 23.4411 10.1929 23.9532 10.0457L23.9444 9.96456C23.7599 8.28478 23.0682 6.70103 21.9613 5.42415Z" fill="#BAC4D2"/>
<path d="M11.9702 22.3978C12.187 23.6111 12.665 24.6825 13.3294 25.4471C13.9938 26.2116 14.8078 26.6263 15.6446 26.6263C16.4815 26.6263 17.2955 26.2116 17.9599 25.4471C18.6242 24.6825 19.101 23.6111 19.3191 22.3978" stroke="#BAC4D2" stroke-width="2" stroke-linecap="round"/>
<path d="M23.2521 10.7773C25.0027 10.7773 26.4219 9.35813 26.4219 7.6075C26.4219 5.85687 25.0027 4.43771 23.2521 4.43771C21.5014 4.43771 20.0823 5.85687 20.0823 7.6075C20.0823 9.35813 21.5014 10.7773 23.2521 10.7773Z" fill="#BAC4D2" stroke="#BAC4D2"/>
</svg>
