<svg width="28" height="21" viewBox="0 0 28 21" fill="none" xmlns="http://www.w3.org/2000/svg">
<path d="M23.7188 1.7692C23.7111 1.75443 23.6985 1.74286 23.6831 1.73655C21.9049 0.920705 20.0284 0.338942 18.1006 0.00582151C18.0831 0.00256533 18.065 0.00491438 18.0489 0.0125346C18.0328 0.0201548 18.0195 0.0326582 18.0109 0.0482666C17.7554 0.512032 17.5234 0.988395 17.3159 1.47554C15.2378 1.16009 13.124 1.16009 11.0459 1.47554C10.837 0.987158 10.6014 0.510676 10.34 0.0482666C10.331 0.0329974 10.3177 0.0207819 10.3017 0.0132112C10.2856 0.00564054 10.2677 0.00306546 10.2502 0.00582151C8.3222 0.338242 6.44559 0.92005 4.66764 1.7366C4.65242 1.74305 4.63958 1.75407 4.63089 1.76813C1.07534 7.07787 0.101346 12.257 0.579156 17.3721C0.5805 17.3846 0.584352 17.3968 0.590482 17.4078C0.596611 17.4188 0.604894 17.4285 0.614838 17.4362C2.6852 18.9692 5.00092 20.1393 7.46318 20.8966C7.48052 20.9018 7.49904 20.9016 7.51624 20.896C7.53345 20.8903 7.54851 20.8795 7.55941 20.8651C8.08825 20.1455 8.55684 19.3836 8.96042 18.587C8.96597 18.576 8.96913 18.564 8.96971 18.5518C8.97029 18.5396 8.96827 18.5273 8.96377 18.5159C8.95928 18.5045 8.95243 18.4942 8.94366 18.4856C8.93489 18.4771 8.9244 18.4705 8.91289 18.4662C8.17395 18.1835 7.45858 17.8427 6.77347 17.447C6.76103 17.4396 6.75058 17.4294 6.74304 17.4171C6.73551 17.4047 6.73112 17.3908 6.73026 17.3764C6.72941 17.3619 6.73212 17.3475 6.73815 17.3344C6.74418 17.3213 6.75335 17.3099 6.76485 17.3012C6.9086 17.1935 7.05245 17.0814 7.18972 16.9683C7.20191 16.9582 7.21667 16.9518 7.23233 16.9497C7.24798 16.9476 7.26392 16.9499 7.27834 16.9563C11.7667 19.0047 16.626 19.0047 21.0613 16.9563C21.0758 16.9495 21.0919 16.9468 21.1078 16.9487C21.1236 16.9507 21.1387 16.9571 21.1511 16.9672C21.2884 17.0803 21.4322 17.1935 21.577 17.3012C21.5886 17.3098 21.5978 17.3212 21.6039 17.3342C21.6101 17.3473 21.6129 17.3617 21.6121 17.3761C21.6114 17.3905 21.6071 17.4045 21.5997 17.4169C21.5922 17.4292 21.5818 17.4396 21.5694 17.447C20.8859 17.846 20.1699 18.1866 19.429 18.4652C19.4175 18.4696 19.407 18.4763 19.3983 18.485C19.3896 18.4937 19.3828 18.5041 19.3784 18.5156C19.374 18.5271 19.3721 18.5394 19.3728 18.5517C19.3735 18.564 19.3767 18.576 19.3824 18.587C19.7927 19.3791 20.2606 20.1401 20.7823 20.8638C20.7929 20.8787 20.8079 20.8898 20.8251 20.8957C20.8424 20.9015 20.8611 20.9018 20.8785 20.8965C23.3452 20.1417 25.665 18.9715 27.7379 17.4362C27.748 17.4289 27.7564 17.4194 27.7626 17.4086C27.7687 17.3977 27.7725 17.3856 27.7736 17.3732C28.3456 11.4596 26.8159 6.3229 23.7188 1.7692ZM9.63073 14.2576C8.27939 14.2576 7.16593 13.0175 7.16593 11.4945C7.16593 9.9715 8.25779 8.73131 9.63073 8.73131C11.0144 8.73131 12.1171 9.98227 12.0955 11.4944C12.0955 13.0175 11.0036 14.2576 9.63073 14.2576ZM18.7438 14.2576C17.3925 14.2576 16.2791 13.0175 16.2791 11.4945C16.2791 9.9715 17.3709 8.73131 18.7438 8.73131C20.1276 8.73131 21.2302 9.98227 21.2086 11.4944C21.2086 13.0175 20.1276 14.2576 18.7438 14.2576Z" fill="white"/>
</svg>
