<svg width="24" height="25" viewBox="0 0 24 25" fill="none" xmlns="http://www.w3.org/2000/svg">
<path d="M2.8816 0.696289H21.1656C21.8584 0.696289 22.5227 0.971481 23.0126 1.46133C23.5024 1.95117 23.7776 2.61555 23.7776 3.30829V21.5923C23.7776 22.2851 23.5024 22.9494 23.0126 23.4393C22.5227 23.9291 21.8584 24.2043 21.1656 24.2043H2.8816C2.18885 24.2043 1.52448 23.9291 1.03463 23.4393C0.544785 22.9494 0.269592 22.2851 0.269592 21.5923V3.30829C0.269592 2.61555 0.544785 1.95117 1.03463 1.46133C1.52448 0.971481 2.18885 0.696289 2.8816 0.696289ZM19.8596 3.30829H16.5946C15.3823 3.30829 14.2197 3.78988 13.3624 4.64711C12.5052 5.50434 12.0236 6.66699 12.0236 7.8793V11.1443H9.4116V15.0623H12.0236V24.2043H15.9416V15.0623H19.8596V11.1443H15.9416V8.5323C15.9416 8.18593 16.0792 7.85374 16.3241 7.60882C16.5691 7.36389 16.9012 7.2263 17.2476 7.2263H19.8596V3.30829Z" fill="white"/>
</svg>
