<svg width="27" height="25" viewBox="0 0 27 25" fill="none" xmlns="http://www.w3.org/2000/svg">
<path d="M26.7596 12.6286C26.7579 12.0681 26.5916 11.5204 26.2813 11.0537C25.971 10.5869 25.5303 10.2216 25.0142 10.0032C24.498 9.78476 23.929 9.72281 23.3779 9.82502C22.8268 9.92724 22.3179 10.1891 21.9144 10.5782C19.6497 9.04823 16.9935 8.20059 14.2612 8.13594L15.5672 1.99773L19.8378 2.92499C19.8597 3.42058 20.0616 3.89117 20.4057 4.24849C20.7498 4.6058 21.2125 4.82529 21.7069 4.86578C22.2013 4.90627 22.6936 4.76498 23.0912 4.46841C23.4889 4.17184 23.7647 3.74037 23.8669 3.25493C23.9691 2.7695 23.8906 2.26346 23.6463 1.83173C23.402 1.4 23.0085 1.07225 22.5397 0.909961C22.071 0.747672 21.5591 0.761992 21.1001 0.950236C20.6411 1.13848 20.2666 1.48771 20.0468 1.93243L15.2929 0.926807C15.1493 0.900687 15.0056 0.926807 14.9142 1.00517C14.7967 1.07047 14.7314 1.18801 14.7052 1.34473L13.2556 8.16206C10.2126 8.25348 7.46999 9.18074 5.48487 10.5912C4.94426 10.0943 4.23393 9.8233 3.49975 9.83374C2.84176 9.81479 2.19787 10.0265 1.67956 10.4323C1.16125 10.8381 0.801165 11.4124 0.661654 12.0557C0.522143 12.699 0.611991 13.3708 0.915641 13.9548C1.21929 14.5389 1.71762 14.9983 2.32434 15.2536C2.27615 15.5384 2.25429 15.8269 2.25904 16.1156C2.25904 20.5168 7.37857 24.1083 13.6996 24.1083C20.0207 24.1083 25.1402 20.543 25.1402 16.1156C25.1402 15.8413 25.1271 15.541 25.0749 15.2536C25.5777 15.0234 26.0037 14.6537 26.3024 14.1883C26.6011 13.7229 26.7598 13.1816 26.7596 12.6286ZM7.16961 14.6659C7.16961 13.5428 8.05769 12.6286 9.18085 12.6286C10.304 12.6286 11.2182 13.5428 11.2182 14.6659C11.2182 15.2063 11.0036 15.7245 10.6215 16.1066C10.2394 16.4887 9.7212 16.7033 9.18085 16.7033C8.05769 16.7294 7.16961 15.7891 7.16961 14.6659ZM18.5449 20.0728C17.1344 21.4833 14.4702 21.5878 13.6996 21.5878C12.903 21.5878 10.2387 21.4572 8.85435 20.0728C8.80499 20.0242 8.7658 19.9662 8.73904 19.9023C8.71229 19.8384 8.69851 19.7699 8.69851 19.7006C8.69851 19.6313 8.71229 19.5627 8.73904 19.4988C8.7658 19.4349 8.80499 19.377 8.85435 19.3284C8.90296 19.279 8.9609 19.2398 9.0248 19.2131C9.0887 19.1863 9.15729 19.1725 9.22656 19.1725C9.29584 19.1725 9.36442 19.1863 9.42832 19.2131C9.49222 19.2398 9.55016 19.279 9.59877 19.3284C10.4869 20.2165 12.3936 20.5168 13.6996 20.5168C15.0056 20.5168 16.9254 20.2165 17.8005 19.3284C17.8491 19.279 17.907 19.2398 17.9709 19.2131C18.0348 19.1863 18.1034 19.1725 18.1727 19.1725C18.242 19.1725 18.3105 19.1863 18.3744 19.2131C18.4383 19.2398 18.4963 19.279 18.5449 19.3284C18.7277 19.5373 18.7277 19.8638 18.5449 20.0728ZM18.1661 16.7294C17.043 16.7294 16.1288 15.8152 16.1288 14.6921C16.1288 14.1517 16.3434 13.6335 16.7255 13.2514C17.1076 12.8694 17.6258 12.6547 18.1661 12.6547C19.2893 12.6547 20.2296 13.5689 20.2296 14.6921C20.2162 15.2327 19.9936 15.747 19.6088 16.1269C19.224 16.5069 18.7069 16.7228 18.1661 16.7294Z" fill="white"/>
</svg>
