<svg width="27" height="27" viewBox="0 0 27 27" fill="none" xmlns="http://www.w3.org/2000/svg">
<path d="M8.31372 0.387695H19.2841C23.4633 0.387695 26.8589 3.7833 26.8589 7.9625V18.9329C26.8589 20.9419 26.0609 22.8686 24.6403 24.2891C23.2198 25.7097 21.2931 26.5077 19.2841 26.5077H8.31372C4.13451 26.5077 0.738907 23.1121 0.738907 18.9329V7.9625C0.738907 5.95354 1.53696 4.02686 2.95752 2.60631C4.37807 1.18575 6.30475 0.387695 8.31372 0.387695ZM8.05252 2.9997C6.80557 2.9997 5.6097 3.49504 4.72798 4.37677C3.84626 5.25849 3.35091 6.45436 3.35091 7.7013V19.1941C3.35091 21.7931 5.45357 23.8957 8.05252 23.8957H19.5453C20.7923 23.8957 21.9881 23.4004 22.8699 22.5187C23.7516 21.6369 24.2469 20.4411 24.2469 19.1941V7.7013C24.2469 5.10236 22.1443 2.9997 19.5453 2.9997H8.05252ZM20.6554 4.9587C21.0884 4.9587 21.5036 5.1307 21.8098 5.43685C22.1159 5.743 22.2879 6.15824 22.2879 6.5912C22.2879 7.02417 22.1159 7.4394 21.8098 7.74556C21.5036 8.05171 21.0884 8.2237 20.6554 8.2237C20.2225 8.2237 19.8072 8.05171 19.5011 7.74556C19.1949 7.4394 19.0229 7.02417 19.0229 6.5912C19.0229 6.15824 19.1949 5.743 19.5011 5.43685C19.8072 5.1307 20.2225 4.9587 20.6554 4.9587ZM13.7989 6.9177C15.5308 6.9177 17.1917 7.60568 18.4163 8.8303C19.6409 10.0549 20.3289 11.7158 20.3289 13.4477C20.3289 15.1796 19.6409 16.8405 18.4163 18.0651C17.1917 19.2897 15.5308 19.9777 13.7989 19.9777C12.0671 19.9777 10.4061 19.2897 9.18151 18.0651C7.9569 16.8405 7.26891 15.1796 7.26891 13.4477C7.26891 11.7158 7.9569 10.0549 9.18151 8.8303C10.4061 7.60568 12.0671 6.9177 13.7989 6.9177ZM13.7989 9.52971C12.7598 9.52971 11.7632 9.94249 11.0285 10.6773C10.2937 11.412 9.88092 12.4086 9.88092 13.4477C9.88092 14.4868 10.2937 15.4834 11.0285 16.2182C11.7632 16.9529 12.7598 17.3657 13.7989 17.3657C14.838 17.3657 15.8346 16.9529 16.5694 16.2182C17.3041 15.4834 17.7169 14.4868 17.7169 13.4477C17.7169 12.4086 17.3041 11.412 16.5694 10.6773C15.8346 9.94249 14.838 9.52971 13.7989 9.52971Z" fill="white"/>
</svg>
