<svg width="31" height="31" viewBox="0 0 31 31" fill="none" xmlns="http://www.w3.org/2000/svg">
<path fill-rule="evenodd" clip-rule="evenodd" d="M18.7574 3.13683C17.5625 2.65679 16.2728 2.45959 14.9891 2.56066C13.7053 2.66173 12.4624 3.05832 11.3573 3.71943C10.2523 4.38055 9.3151 5.28827 8.61905 6.37164C7.92299 7.45502 7.48692 8.6847 7.34492 9.96456L7.0254 12.8377L7.01779 12.9061C6.87477 14.1529 6.46898 15.3551 5.82722 16.4335L5.79172 16.4931L5.05886 17.7141L5.02843 17.7648C4.7216 18.2757 4.44519 18.7385 4.26008 19.1303C4.07242 19.5285 3.87083 20.0686 3.96845 20.6823C4.06369 21.2876 4.37492 21.838 4.84459 22.2317C5.32132 22.6298 5.88681 22.735 6.32551 22.7794C6.7566 22.8225 7.29674 22.8225 7.89139 22.8225H23.398C23.9927 22.8225 24.5315 22.8225 24.9639 22.7794C25.4013 22.735 25.9681 22.6298 26.4435 22.2317C26.9137 21.8382 27.2254 21.2878 27.3209 20.6823C27.4186 20.0699 27.217 19.5285 27.0293 19.1303C26.8442 18.7373 26.5678 18.2757 26.261 17.7648L26.2305 17.7141L25.4977 16.4931L25.4622 16.4335C24.9829 15.6283 24.6341 14.7523 24.4288 13.838C23.5703 14 22.6875 13.9827 21.8359 13.7873C22.07 15.1799 22.5606 16.517 23.2826 17.7305L23.3232 17.7977L24.0561 19.0187C24.4022 19.5969 24.6114 19.9481 24.7357 20.2106L24.7534 20.2512L24.709 20.2562C24.4212 20.2854 24.0117 20.2867 23.3384 20.2867H7.95098C7.27772 20.2867 6.86818 20.2854 6.5791 20.2562L6.53599 20.2512L6.55374 20.2106C6.67799 19.9481 6.8872 19.5969 7.23334 19.0187L7.9662 17.7977L8.00677 17.7305C8.83179 16.344 9.35339 14.7982 9.53715 13.1952L9.54602 13.1191L9.86554 10.2448C9.95967 9.39579 10.2397 8.57798 10.6857 7.84948C11.1317 7.12099 11.7327 6.49971 12.4461 6.02981C13.1594 5.55992 13.9675 5.25295 14.8128 5.13074C15.6582 5.00853 16.5202 5.07407 17.3374 5.32271C17.6542 4.50358 18.1378 3.75922 18.7574 3.13683ZM21.9615 5.42415C21.5029 5.69523 21.1413 6.10385 20.928 6.59203C20.7148 7.08022 20.6607 7.62317 20.7734 8.14383C20.9256 8.42953 21.0545 8.72834 21.1601 9.04025C21.461 9.48008 21.8928 9.81395 22.3942 9.99444C22.8956 10.1749 23.4412 10.1929 23.9534 10.0457L23.9445 9.96456C23.7601 8.28478 23.0684 6.70103 21.9615 5.42415Z" fill="#64748B"/>
<path d="M11.9703 22.3978C12.1872 23.6111 12.6652 24.6825 13.3295 25.4471C13.9939 26.2116 14.8079 26.6263 15.6448 26.6263C16.4816 26.6263 17.2956 26.2116 17.96 25.4471C18.6244 24.6825 19.1011 23.6111 19.3192 22.3978" stroke="#64748B" stroke-width="2" stroke-linecap="round"/>
<path d="M23.2522 10.7773C25.0028 10.7773 26.422 9.35813 26.422 7.6075C26.422 5.85687 25.0028 4.43771 23.2522 4.43771C21.5016 4.43771 20.0824 5.85687 20.0824 7.6075C20.0824 9.35813 21.5016 10.7773 23.2522 10.7773Z" fill="#64748B" stroke="#64748B"/>
</svg>
