<svg width="31" height="31" viewBox="0 0 31 31" fill="none" xmlns="http://www.w3.org/2000/svg">
<path d="M8.19233 15.2144V10.5977C8.20604 9.6902 8.39869 8.79434 8.75924 7.96142C9.11979 7.12851 9.64116 6.37493 10.2935 5.74385C10.9458 5.11277 11.7162 4.6166 12.5606 4.28377C13.405 3.95094 14.3068 3.78799 15.2143 3.80426C16.1218 3.78799 17.0236 3.95094 17.868 4.28377C18.7124 4.6166 19.4828 5.11277 20.1351 5.74385C20.7874 6.37493 21.3088 7.12851 21.6694 7.96142C22.0299 8.79434 22.2226 9.6902 22.2363 10.5977V15.2144M18.7253 24.4303C19.6565 24.4303 20.5495 24.0604 21.2079 23.402C21.8664 22.7436 22.2363 21.8506 22.2363 20.9195V16.9698M18.7253 24.4303C18.7253 25.0123 18.4941 25.5704 18.0826 25.9819C17.6711 26.3934 17.1129 26.6246 16.5309 26.6246H13.8977C13.3157 26.6246 12.7576 26.3934 12.346 25.9819C11.9345 25.5704 11.7033 25.0123 11.7033 24.4303C11.7033 23.8484 11.9345 23.2902 12.346 22.8787C12.7576 22.4672 13.3157 22.2361 13.8977 22.2361H16.5309C17.1129 22.2361 17.6711 22.4672 18.0826 22.8787C18.4941 23.2902 18.7253 23.8484 18.7253 24.4303ZM5.55908 12.5813H7.31458C7.54737 12.5813 7.77063 12.6738 7.93524 12.8384C8.09985 13.003 8.19233 13.2262 8.19233 13.459V18.7252C8.19233 18.958 8.09985 19.1813 7.93524 19.3459C7.77063 19.5105 7.54737 19.6029 7.31458 19.6029H5.55908C5.0935 19.6029 4.64698 19.418 4.31776 19.0888C3.98854 18.7596 3.80359 18.3131 3.80359 17.8475V14.3367C3.80359 13.8712 3.98854 13.4247 4.31776 13.0955C4.64698 12.7663 5.0935 12.5813 5.55908 12.5813ZM24.8695 19.6029H23.114C22.8812 19.6029 22.658 19.5105 22.4934 19.3459C22.3288 19.1813 22.2363 18.958 22.2363 18.7252V13.459C22.2363 13.2262 22.3288 13.003 22.4934 12.8384C22.658 12.6738 22.8812 12.5813 23.114 12.5813H24.8695C25.3351 12.5813 25.7816 12.7663 26.1108 13.0955C26.4401 13.4247 26.625 13.8712 26.625 14.3367V17.8475C26.625 18.3131 26.4401 18.7596 26.1108 19.0888C25.7816 19.418 25.3351 19.6029 24.8695 19.6029Z" stroke="#64748B" stroke-width="1.94405" stroke-linecap="round" stroke-linejoin="round"/>
</svg>
