<svg width="32" height="31" viewBox="0 0 32 31" fill="none" xmlns="http://www.w3.org/2000/svg">
<g clip-path="url(#clip0_1_2284)">
<path d="M15.1729 29.526V25.7831C15.1729 25.5433 15.2681 25.3134 15.4377 25.1438C15.6072 24.9743 15.8371 24.8791 16.0769 24.8791C16.3167 24.8791 16.5466 24.9743 16.7162 25.1438C16.8857 25.3134 16.9809 25.5433 16.9809 25.7831V29.526C16.9809 29.7657 16.8857 29.9957 16.7162 30.1652C16.5466 30.3348 16.3167 30.43 16.0769 30.43C15.8371 30.43 15.6072 30.3348 15.4377 30.1652C15.2681 29.9957 15.1729 29.7657 15.1729 29.526ZM25.5571 25.9707L22.911 23.3259C22.8235 23.2428 22.7535 23.143 22.7052 23.0324C22.6569 22.9218 22.6312 22.8027 22.6296 22.682C22.628 22.5613 22.6507 22.4416 22.6961 22.3298C22.7416 22.218 22.809 22.1165 22.8943 22.0311C22.9796 21.9458 23.0812 21.8784 23.193 21.833C23.3048 21.7875 23.4245 21.7649 23.5452 21.7664C23.6659 21.768 23.785 21.7937 23.8956 21.842C24.0062 21.8903 24.1059 21.9603 24.189 22.0478L26.8326 24.6965C26.9808 24.8699 27.0579 25.0928 27.0486 25.3207C27.0392 25.5486 26.9441 25.7645 26.7823 25.9252C26.6205 26.0859 26.4039 26.1795 26.176 26.1872C25.9481 26.1949 25.7257 26.1163 25.5533 25.9669L25.5546 25.9682L25.5571 25.9707ZM5.31864 25.9707C5.2343 25.8871 5.16736 25.7875 5.12168 25.6778C5.076 25.5682 5.05248 25.4505 5.05248 25.3317C5.05248 25.2129 5.076 25.0953 5.12168 24.9856C5.16736 24.8759 5.2343 24.7764 5.31864 24.6927L7.96478 22.0465C8.04789 21.959 8.14767 21.8891 8.25825 21.8407C8.36883 21.7924 8.48796 21.7667 8.60863 21.7652C8.7293 21.7636 8.84905 21.7862 8.96084 21.8317C9.07263 21.8771 9.17418 21.9445 9.25951 22.0299C9.34484 22.1152 9.41223 22.2167 9.45769 22.3285C9.50315 22.4403 9.52577 22.5601 9.52422 22.6807C9.52266 22.8014 9.49697 22.9205 9.44864 23.0311C9.40032 23.1417 9.33034 23.2415 9.24284 23.3246L6.5967 25.9695C6.51302 26.0538 6.41347 26.1207 6.30379 26.1664C6.19411 26.2121 6.07648 26.2356 5.95767 26.2356C5.83886 26.2356 5.72122 26.2121 5.61155 26.1664C5.50187 26.1207 5.40232 26.0551 5.31864 25.9707ZM8.87261 15.2125C8.87261 13.3014 9.63176 11.4687 10.9831 10.1174C12.3344 8.76605 14.1671 8.00689 16.0782 8.00689C17.9892 8.00689 19.822 8.76605 21.1733 10.1174C22.5246 11.4687 23.2838 13.3014 23.2838 15.2125C23.2838 17.1235 22.5246 18.9563 21.1733 20.3076C19.822 21.6589 17.9892 22.418 16.0782 22.418C14.1671 22.418 12.3344 21.6589 10.9831 20.3076C9.63176 18.9563 8.87261 17.1235 8.87261 15.2125ZM10.6794 15.2125C10.6638 15.9315 10.792 16.6463 11.0563 17.3151C11.3207 17.9839 11.716 18.5932 12.219 19.1072C12.722 19.6212 13.3225 20.0296 13.9854 20.3084C14.6484 20.5872 15.3603 20.7308 16.0794 20.7308C16.7986 20.7308 17.5105 20.5872 18.1734 20.3084C18.8364 20.0296 19.4369 19.6212 19.9399 19.1072C20.4429 18.5932 20.8382 17.9839 21.1026 17.3151C21.3669 16.6463 21.4951 15.9315 21.4795 15.2125C21.4489 13.8005 20.8665 12.4568 19.8572 11.469C18.8478 10.4813 17.4917 9.92817 16.0794 9.92817C14.6672 9.92817 13.3111 10.4813 12.3017 11.469C11.2924 12.4568 10.71 13.8005 10.6794 15.2125ZM26.6437 16.1165C26.525 16.1165 26.4075 16.0931 26.2978 16.0477C26.1881 16.0022 26.0884 15.9357 26.0045 15.8517C25.9205 15.7678 25.854 15.6681 25.8085 15.5584C25.7631 15.4487 25.7397 15.3312 25.7397 15.2125C25.7397 15.0937 25.7631 14.9762 25.8085 14.8665C25.854 14.7568 25.9205 14.6572 26.0045 14.5732C26.0884 14.4893 26.1881 14.4227 26.2978 14.3773C26.4075 14.3318 26.525 14.3084 26.6437 14.3084H30.3866C30.5053 14.3084 30.6229 14.3318 30.7326 14.3773C30.8423 14.4227 30.9419 14.4893 31.0259 14.5732C31.1098 14.6572 31.1764 14.7568 31.2218 14.8665C31.2673 14.9762 31.2906 15.0937 31.2906 15.2125C31.2906 15.3312 31.2673 15.4487 31.2218 15.5584C31.1764 15.6681 31.1098 15.7678 31.0259 15.8517C30.9419 15.9357 30.8423 16.0022 30.7326 16.0477C30.6229 16.0931 30.5053 16.1165 30.3866 16.1165H26.6437ZM1.7634 16.1165C1.64468 16.1165 1.52713 16.0931 1.41744 16.0477C1.30776 16.0022 1.2081 15.9357 1.12416 15.8517C1.04021 15.7678 0.973621 15.6681 0.92819 15.5584C0.882758 15.4487 0.859375 15.3312 0.859375 15.2125C0.859375 15.0937 0.882758 14.9762 0.92819 14.8665C0.973621 14.7568 1.04021 14.6572 1.12416 14.5732C1.2081 14.4893 1.30776 14.4227 1.41744 14.3773C1.52713 14.3318 1.64468 14.3084 1.7634 14.3084H5.50756C5.62628 14.3084 5.74383 14.3318 5.85351 14.3773C5.96319 14.4227 6.06285 14.4893 6.1468 14.5732C6.23075 14.6572 6.29734 14.7568 6.34277 14.8665C6.3882 14.9762 6.41158 15.0937 6.41158 15.2125C6.41158 15.3312 6.3882 15.4487 6.34277 15.5584C6.29734 15.6681 6.23075 15.7678 6.1468 15.8517C6.06285 15.9357 5.96319 16.0022 5.85351 16.0477C5.74383 16.0931 5.62628 16.1165 5.50756 16.1165H1.7634ZM22.9084 8.37839C22.8241 8.29471 22.7572 8.19516 22.7115 8.08548C22.6658 7.97581 22.6423 7.85817 22.6423 7.73936C22.6423 7.62055 22.6658 7.50292 22.7115 7.39324C22.7572 7.28357 22.8241 7.18402 22.9084 7.10033L25.5546 4.45419C25.6377 4.36669 25.7375 4.29672 25.8481 4.24839C25.9586 4.20006 26.0778 4.17437 26.1984 4.17281C26.3191 4.17126 26.4389 4.19388 26.5506 4.23934C26.6624 4.28481 26.764 4.35219 26.8493 4.43752C26.9347 4.52285 27.002 4.62441 27.0475 4.73619C27.093 4.84798 27.1156 4.96773 27.114 5.0884C27.1125 5.20907 27.0868 5.3282 27.0384 5.43878C26.9901 5.54936 26.9201 5.64914 26.8326 5.73225L24.1865 8.37839C24.1028 8.46273 24.0033 8.52967 23.8936 8.57535C23.7839 8.62103 23.6663 8.64455 23.5475 8.64455C23.4287 8.64455 23.311 8.62103 23.2014 8.57535C23.0917 8.52967 22.9921 8.46273 22.9084 8.37839ZM7.96224 8.37839L5.31864 5.73479C5.23114 5.65168 5.16116 5.5519 5.11284 5.44132C5.06451 5.33074 5.03881 5.2116 5.03726 5.09094C5.03571 4.97027 5.05833 4.85051 5.10379 4.73873C5.14925 4.62694 5.21664 4.52539 5.30197 4.44006C5.3873 4.35472 5.48885 4.28734 5.60064 4.24188C5.71242 4.19642 5.83218 4.1738 5.95285 4.17535C6.07352 4.1769 6.19265 4.2026 6.30323 4.25093C6.41381 4.29925 6.51359 4.36923 6.5967 4.45673L9.24284 7.10287C9.33034 7.18598 9.40032 7.28576 9.44864 7.39634C9.49697 7.50692 9.52266 7.62605 9.52422 7.74672C9.52577 7.86739 9.50315 7.98714 9.45769 8.09893C9.41223 8.21072 9.34484 8.31227 9.25951 8.3976C9.17418 8.48293 9.07263 8.55031 8.96084 8.59578C8.84905 8.64124 8.7293 8.66386 8.60863 8.66231C8.48796 8.66075 8.36883 8.63506 8.25825 8.58673C8.14767 8.53841 8.04789 8.46843 7.96478 8.38093L7.96224 8.37839ZM15.1704 4.64565V0.904025C15.1704 0.664262 15.2656 0.43432 15.4351 0.264783C15.6047 0.0952452 15.8346 0 16.0744 0C16.3141 0 16.5441 0.0952452 16.7136 0.264783C16.8832 0.43432 16.9784 0.664262 16.9784 0.904025V4.64691C16.9784 4.88668 16.8832 5.11662 16.7136 5.28616C16.5441 5.45569 16.3141 5.55094 16.0744 5.55094C15.8346 5.55094 15.6047 5.45569 15.4351 5.28616C15.2656 5.11662 15.1704 4.88541 15.1704 4.64565Z" fill="#64748B"/>
</g>
<defs>
<clipPath id="clip0_1_2284">
<rect width="30.43" height="30.43" fill="white" transform="translate(0.859375)"/>
</clipPath>
</defs>
</svg>
