<svg width="25" height="25" viewBox="0 0 25 25" fill="none" xmlns="http://www.w3.org/2000/svg">
<path d="M21.7154 0.695801C22.4081 0.695801 23.0725 0.970993 23.5623 1.46084C24.0522 1.95068 24.3274 2.61506 24.3274 3.3078V21.5918C24.3274 22.2846 24.0522 22.9489 23.5623 23.4388C23.0725 23.9286 22.4081 24.2038 21.7154 24.2038H3.43134C2.73859 24.2038 2.07422 23.9286 1.58437 23.4388C1.09453 22.9489 0.819336 22.2846 0.819336 21.5918V3.3078C0.819336 2.61506 1.09453 1.95068 1.58437 1.46084C2.07422 0.970993 2.73859 0.695801 3.43134 0.695801H21.7154ZM21.0624 20.9388V14.017C21.0624 12.8878 20.6138 11.8049 19.8153 11.0065C19.0169 10.208 17.934 9.75945 16.8048 9.75945C15.6947 9.75945 14.4018 10.4386 13.7749 11.4573V10.0076H10.1311V20.9388H13.7749V14.5002C13.7749 13.4946 14.5846 12.6718 15.5902 12.6718C16.0751 12.6718 16.5402 12.8645 16.8831 13.2074C17.226 13.5503 17.4186 14.0153 17.4186 14.5002V20.9388H21.0624ZM5.88662 7.95717C6.46853 7.95717 7.0266 7.72601 7.43807 7.31454C7.84954 6.90307 8.08071 6.34499 8.08071 5.76309C8.08071 4.54851 7.1012 3.55594 5.88662 3.55594C5.30125 3.55594 4.73986 3.78848 4.32594 4.2024C3.91202 4.61632 3.67948 5.17772 3.67948 5.76309C3.67948 6.97767 4.67204 7.95717 5.88662 7.95717ZM7.70196 20.9388V10.0076H4.08434V20.9388H7.70196Z" fill="white"/>
</svg>
