<svg width="29" height="30" viewBox="0 0 29 30" fill="none" xmlns="http://www.w3.org/2000/svg">
<path d="M23.4845 10.6844C23.5639 7.98267 23.3637 5.27998 22.8871 2.61945C22.8107 2.18586 22.463 1.85123 22.0268 1.79145C15.4711 0.913267 8.82759 0.913267 2.2719 1.79145C1.83553 1.85087 1.48769 2.18567 1.41164 2.61945C0.594394 7.18516 0.594394 11.8597 1.41164 16.4254C1.48769 16.8592 1.83553 17.194 2.2719 17.2534C6.51541 17.8206 10.7999 18.0205 15.0778 17.8508M9.85294 6.23493C9.71136 6.15402 9.53753 6.15411 9.39603 6.23518C9.25454 6.31624 9.16654 6.46616 9.16473 6.62922V12.4109C9.16558 12.5745 9.25304 12.7254 9.39457 12.8075C9.53611 12.8895 9.71053 12.8905 9.85294 12.8099L14.907 9.9221C15.0506 9.84027 15.1392 9.6877 15.1392 9.52243C15.1392 9.35717 15.0506 9.2046 14.907 9.12277L9.85294 6.23493ZM28.2816 28.6136C28.2816 25.3143 25.607 22.6396 22.3076 22.6396C19.0082 22.6396 16.3336 25.3143 16.3336 28.6136H28.2816ZM22.3076 20.8474C24.2872 20.8474 25.892 19.2426 25.892 17.263C25.892 15.2834 24.2872 13.6786 22.3076 13.6786C20.328 13.6786 18.7232 15.2834 18.7232 17.263C18.7232 19.2426 20.328 20.8474 22.3076 20.8474Z" stroke="#92BD39" stroke-width="1.19481" stroke-linecap="round" stroke-linejoin="round"/>
</svg>
