<svg width="27" height="29" viewBox="0 0 27 29" fill="none" xmlns="http://www.w3.org/2000/svg">
<path d="M25.8134 27.6598L22.8921 23.6501V18.3093C22.9279 17.0548 21.8251 15.6736 20.4523 14.3545M19.9935 20.6463L16.8488 17.4084C16.5382 17.0822 16.0751 16.95 15.6391 17.0632C15.2031 17.1763 14.8627 17.5169 14.7499 17.953C14.6371 18.389 14.7696 18.852 15.096 19.1624L18.2168 22.9846V24.7374C18.2168 25.9071 20.0401 27.6598 20.0401 27.6598M12.3754 10.6721C13.6659 10.6714 14.7118 9.62551 14.7125 8.33507V8.33626C14.7125 7.04536 13.6663 5.99869 12.3754 5.99803H8.2844V10.6721M12.3754 10.6721L8.2844 10.6721M12.3754 10.6721C13.6663 10.6728 14.7125 11.7194 14.7125 13.0103C14.7118 14.3008 13.6659 15.3467 12.3754 15.3474H8.2844V10.6721M12.3754 4.24406V5.99683M12.3754 15.3486V17.1014M10.0372 4.24406V5.99683M10.0372 15.3486V17.1014M15.5094 19.669C10.7916 21.9392 5.12172 20.1586 2.54895 15.5987C-0.0238147 11.0389 1.38365 5.26504 5.76617 2.40066C10.1487 -0.463718 16.002 0.564583 19.1458 4.75118C22.2896 8.93777 21.6449 14.8456 17.672 18.2555" stroke="#E0CB15" stroke-width="1.19481" stroke-linecap="round" stroke-linejoin="round"/>
</svg>
