<svg width="112" height="113" viewBox="0 0 112 113" fill="none" xmlns="http://www.w3.org/2000/svg">
<g clip-path="url(#clip0_1_2154)">
<path d="M55.6956 112.098C86.3842 112.098 111.262 87.2203 111.262 56.5316C111.262 25.8429 86.3842 0.964844 55.6956 0.964844C25.0069 0.964844 0.128784 25.8429 0.128784 56.5316C0.128784 87.2203 25.0069 112.098 55.6956 112.098Z" fill="#C3A634"/>
<path fill-rule="evenodd" clip-rule="evenodd" d="M46.1386 51.6992H61.1208V59.6383H46.1386V76.3708H55.5884C59.3276 76.3708 62.3884 75.8649 64.7708 74.8532C67.1533 73.8437 69.0229 72.443 70.3796 70.6509C71.7685 68.7874 72.7139 66.6316 73.1441 64.3476C73.6458 61.7712 73.8901 59.1513 73.8734 56.5265C73.8901 53.9018 73.6458 51.2819 73.1441 48.7055C72.7139 46.4215 71.7685 44.2657 70.3796 42.4022C69.0205 40.6101 67.1509 39.2094 64.7708 38.1999C62.3884 37.1882 59.3276 36.6823 55.5884 36.6823H46.1386V51.7027V51.6992ZM36.5325 59.6383H31.3856V51.7027H36.5325V28.7432H59.2767C63.4789 28.7432 67.1162 29.469 70.1886 30.9207C73.261 32.3747 75.7707 34.36 77.7179 36.8767C79.6627 39.3911 81.1098 42.335 82.059 45.7084C83.0083 49.0818 83.4818 52.6878 83.4795 56.5265C83.502 60.1808 83.0229 63.8208 82.0556 67.3447C81.1109 70.7158 79.6639 73.6596 77.7144 76.1763C75.7696 78.6931 73.261 80.6784 70.1886 82.1324C67.1139 83.5841 63.4766 84.3099 59.2767 84.3099H36.5325V59.6383Z" fill="white"/>
</g>
<defs>
<clipPath id="clip0_1_2154">
<rect width="111.134" height="111.134" fill="white" transform="translate(0.129761 0.964844)"/>
</clipPath>
</defs>
</svg>
