<svg width="112" height="113" viewBox="0 0 112 113" fill="none" xmlns="http://www.w3.org/2000/svg">
<g clip-path="url(#clip0_1_2146)">
<path d="M55.9703 112.098C86.659 112.098 111.537 87.2203 111.537 56.5316C111.537 25.8429 86.659 0.964844 55.9703 0.964844C25.2817 0.964844 0.403564 25.8429 0.403564 56.5316C0.403564 87.2203 25.2817 112.098 55.9703 112.098Z" fill="url(#paint0_linear_1_2146)"/>
<path d="M34.872 69.3339C35.2581 68.9582 35.7746 68.7466 36.3133 68.7435H86.2053C86.4065 68.7408 86.6038 68.7984 86.772 68.9088C86.9401 69.0193 87.0713 69.1776 87.1487 69.3633C87.226 69.549 87.246 69.7537 87.2059 69.9508C87.1659 70.148 87.0678 70.3286 86.9242 70.4695L77.068 80.2458C76.6825 80.6228 76.1659 80.8356 75.6268 80.8397H25.7348C25.5336 80.8414 25.3366 80.7831 25.1688 80.6721C25.001 80.5612 24.8701 80.4027 24.7929 80.217C24.7157 80.0313 24.6957 79.8267 24.7354 79.6295C24.7751 79.4324 24.8728 79.2515 25.0159 79.1102L34.872 69.3339ZM34.872 32.8091C35.2581 32.4335 35.7746 32.2219 36.3133 32.2188H86.2053C87.1117 32.2188 87.5667 33.3092 86.9242 33.9483L77.068 43.7245C76.682 44.1002 76.1654 44.3118 75.6268 44.3149H25.7348C25.5343 44.316 25.3382 44.2574 25.1711 44.1466C25.0041 44.0358 24.8738 43.8779 24.7967 43.6929C24.7197 43.5079 24.6994 43.3042 24.7384 43.1076C24.7774 42.911 24.874 42.7305 25.0159 42.5889L34.872 32.8091ZM77.068 50.9552C76.682 50.5795 76.1654 50.3679 75.6268 50.3648H25.7348C25.5336 50.3631 25.3366 50.4214 25.1688 50.5323C25.001 50.6433 24.8701 50.8017 24.7929 50.9875C24.7157 51.1732 24.6957 51.3777 24.7354 51.5749C24.7751 51.7721 24.8728 51.9529 25.0159 52.0943L34.872 61.8706C35.254 62.2491 35.775 62.461 36.3133 62.461H86.2053C86.4064 62.4627 86.6035 62.4043 86.7713 62.2934C86.9391 62.1825 87.0699 62.024 87.1471 61.8383C87.2243 61.6526 87.2444 61.448 87.2046 61.2508C87.1649 61.0537 87.0673 60.8728 86.9242 60.7314L77.068 50.9552Z" fill="white"/>
</g>
<defs>
<linearGradient id="paint0_linear_1_2146" x1="55.9703" y1="0.964844" x2="55.9703" y2="112.098" gradientUnits="userSpaceOnUse">
<stop stop-color="#66F9A1"/>
<stop offset="1" stop-color="#3C935F"/>
</linearGradient>
<clipPath id="clip0_1_2146">
<rect width="111.134" height="111.134" fill="white" transform="translate(0.404297 0.964844)"/>
</clipPath>
</defs>
</svg>
