<svg width="41" height="42" viewBox="0 0 41 42" fill="none" xmlns="http://www.w3.org/2000/svg">
<g clip-path="url(#clip0_94_915)">
<path d="M20.4479 41.4657C31.7091 41.4657 40.8382 32.3366 40.8382 21.0754C40.8382 9.81415 31.7091 0.685112 20.4479 0.685112C9.18665 0.685112 0.0576172 9.81415 0.0576172 21.0754C0.0576172 32.3366 9.18665 41.4657 20.4479 41.4657Z" fill="#EF0027"/>
<path d="M28.0073 13.323L9.61523 9.93822L19.2942 34.2944L32.7811 17.8624L28.0073 13.323ZM27.7116 14.814L30.5255 17.489L22.8307 18.8819L27.7116 14.814ZM21.1587 18.6028L13.0484 11.8766L26.3047 14.3158L21.1587 18.6028ZM20.5814 19.7931L19.2586 30.7274L12.1283 12.7801L20.5814 19.7931ZM21.8048 20.3729L30.3267 18.8309L20.5521 30.7376L21.8048 20.3729Z" fill="white"/>
</g>
<defs>
<clipPath id="clip0_94_915">
<rect width="40.7805" height="40.7805" fill="white" transform="translate(0.0576172 0.692261)"/>
</clipPath>
</defs>
</svg>
